# This file uses centimeters as units for non-parametric coordinates.

mtllib teil.mtl
g default
v 0.499896 -1.000000 -0.309017
v 0.458863 -1.000000 -0.587786
v 0.394951 -1.000000 -0.809017
v 0.314418 -1.000000 -0.951057
v 0.174643 -1.000000 -1.000000
v 0.029539 -1.000000 -0.951057
v -0.001233 -1.000000 -0.809017
v -0.036108 -1.000000 -0.587785
v -0.080785 -1.000000 -0.309017
v -0.063743 -1.000000 0.000000
v -0.080785 -1.000000 0.309017
v -0.121819 -1.000000 0.587785
v -0.141854 -1.015218 0.809017
v -0.101333 -1.000000 0.940607
v -0.039056 -1.000000 1.139709
v 0.177935 -1.000000 1.044118
v 0.369121 -1.000000 0.809017
v 0.458862 -1.000000 0.587785
v 0.499896 -1.000000 0.309017
v 0.514035 -1.000000 0.000000
v 0.225146 1.000000 -1.003936
v -0.080785 -1.000000 -0.309017
v -0.036108 -1.000000 -0.587786
v -0.001233 -1.000000 -0.809017
v 0.029539 -1.000000 -0.951057
v -0.176827 -1.000000 -1.000000
v -0.444806 -1.000000 -0.951057
v -0.525339 -1.000000 -0.809017
v -0.589251 -1.000000 -0.587785
v -0.630284 -1.000000 -0.309017
v -0.644424 -1.000000 0.000000
v -0.630284 -1.000000 0.309017
v -0.589251 -1.000000 0.587785
v -0.525339 -1.000000 0.809017
v -0.417433 -1.000000 0.951057
v -0.039056 -1.000000 1.139709
v -0.101333 -1.000000 0.940607
v -0.141854 -1.015218 0.809017
v -0.121819 -1.000000 0.587785
v -0.080785 -1.000000 0.309017
v -0.063743 -1.000000 0.000000
v -0.355535 1.000000 -1.003936
v -0.223563 -1.000000 1.080418
vt 0.250000 0.500000
vt 0.275000 0.500000
vt 0.300000 0.500000
vt 0.325000 0.500000
vt 0.350000 0.500000
vt 0.375000 0.500000
vt 0.400000 0.500000
vt 0.425000 0.500000
vt 0.450000 0.500000
vt 0.475000 0.500000
vt 0.500000 0.500000
vt 0.525000 0.500000
vt 0.550000 0.500000
vt 0.575000 0.500000
vt 0.600000 0.500000
vt 0.625000 0.500000
vt 0.650000 0.500000
vt 0.675000 0.500000
vt 0.700000 0.500000
vt 0.725000 0.500000
vt 0.750000 0.500000
vt 0.500000 1.000000
vt 0.250000 0.500000
vt 0.275000 0.500000
vt 0.500000 1.000000
vt 0.300000 0.500000
vt 0.325000 0.500000
vt 0.350000 0.500000
vt 0.375000 0.500000
vt 0.400000 0.500000
vt 0.425000 0.500000
vt 0.450000 0.500000
vt 0.475000 0.500000
vt 0.500000 0.500000
vt 0.525000 0.500000
vt 0.550000 0.500000
vt 0.575000 0.500000
vt 0.587211 0.500000
vt 0.600000 0.500000
vt 0.625000 0.500000
vt 0.650000 0.500000
vt 0.675000 0.500000
vt 0.700000 0.500000
vt 0.725000 0.500000
vt 0.750000 0.500000
vn 0.990798 0.107564 -0.082157
vn 0.977908 0.073563 -0.195665
vn 0.197939 0.977500 -0.072904
vn 0.931529 0.043906 -0.361006
vn 0.663578 0.009841 -0.748043
vn -0.005216 -0.001836 -0.999985
vn -0.752462 0.056243 -0.656230
vn -0.980064 0.093867 -0.175110
vn -0.983006 0.095827 -0.156577
vn -0.989425 0.143075 -0.023809
vn -0.990703 0.135104 -0.015933
vn -0.990444 0.075920 -0.115136
vn -0.990585 0.089188 -0.103864
vn -0.946328 0.293707 0.134908
vn -0.878189 0.399334 0.263279
vn -0.116231 0.733330 0.669864
vn 0.435688 0.638935 0.633986
vn 0.712434 0.498757 0.493638
vn 0.900339 0.330520 0.283100
vn 0.972572 0.205340 0.109271
vn 0.988673 0.149494 0.013320
vn 0.989166 0.144629 0.025162
vn 0.970120 0.187086 0.154489
vn -0.117509 0.957874 -0.262048
vn 0.966668 0.188168 0.173626
vn 0.766320 0.130915 -0.628980
vn 0.011543 -0.000936 -0.999933
vn -0.491930 -0.001062 -0.870634
vn -0.931530 0.043906 -0.361005
vn -0.977908 0.073563 -0.195665
vn -0.990798 0.107564 -0.082158
vn -0.988673 0.149494 0.013320
vn -0.972571 0.205340 0.109271
vn -0.931766 0.286432 0.223088
vn -0.769217 0.463770 0.439572
vn -0.497008 0.614385 0.612793
vn -0.305318 0.677372 0.669290
vn 0.270963 0.723456 0.634973
vn 0.943116 -0.162261 -0.290178
vn 0.987483 -0.033878 -0.154046
vn 0.971694 0.205830 0.115949
vn 0.971828 0.207222 0.112292
vn 0.988214 0.152234 0.016051
s 1
g pCone3
usemtl initialShadingGroup
f 1/1/1 2/2/2 21/22/3
f 2/2/2 3/3/4 21/22/3
f 3/3/4 4/4/5 21/22/3
f 4/4/5 5/5/6 21/22/3
f 5/5/6 6/6/7 21/22/3
f 6/6/7 7/7/8 21/22/3
f 7/7/8 8/8/9 21/22/3
f 8/8/9 9/9/10 21/22/3
f 9/9/10 10/10/11 21/22/3
f 10/10/11 11/11/12 21/22/3
f 11/11/12 12/12/13 21/22/3
f 12/12/13 13/13/14 21/22/3
f 13/13/14 14/14/15 21/22/3
f 14/14/15 15/15/16 21/22/3
f 15/15/16 16/16/17 21/22/3
f 16/16/17 17/17/18 21/22/3
f 17/17/18 18/18/19 21/22/3
f 18/18/19 19/19/20 21/22/3
f 19/19/20 20/20/21 21/22/3
f 20/20/21 1/21/1 21/22/3
s 2
f 22/23/22 23/24/23 42/25/24
f 23/24/23 24/26/25 42/25/24
f 24/26/25 25/27/26 42/25/24
f 25/27/26 26/28/27 42/25/24
f 26/28/27 27/29/28 42/25/24
f 27/29/28 28/30/29 42/25/24
f 28/30/29 29/31/30 42/25/24
f 29/31/30 30/32/31 42/25/24
f 30/32/31 31/33/32 42/25/24
f 31/33/32 32/34/33 42/25/24
f 32/34/33 33/35/34 42/25/24
f 33/35/34 34/36/35 42/25/24
f 34/36/35 35/37/36 42/25/24
f 35/37/36 43/38/37 42/25/24
f 36/39/38 37/40/39 42/25/24
f 37/40/39 38/41/40 42/25/24
f 38/41/40 39/42/41 42/25/24
f 39/42/41 40/43/42 42/25/24
f 40/43/42 41/44/43 42/25/24
f 41/44/43 22/45/22 42/25/24
f 42/25/24 43/38/37 36/39/38
